<?xml version="1.0" ?><!DOCTYPE svg  PUBLIC '-//W3C//DTD SVG 1.1//EN'  'http://www.w3.org/Graphics/SVG/1.1/DTD/svg11.dtd'><svg enable-background="new 0 0 512 512" height="512px" id="Layer_1" version="1.1" viewBox="0 0 512 512" width="512px" xml:space="preserve" xmlns="http://www.w3.org/2000/svg" xmlns:xlink="http://www.w3.org/1999/xlink"><g><path clip-rule="evenodd" d="M25.98,495.221l239.554-238.99L25.98,16.78   C20.08,26.302,16,41.723,16,63.938V256.23v191.823C16,470.271,20.08,485.69,25.98,495.221L25.98,495.221z" fill="#2A9A84" fill-rule="evenodd"/><path clip-rule="evenodd" d="M55.013,0l233.2,233.546l78.495-78.906L122.16,22.217   C94.487,7.257,77.247,0,57.287,0C56.373,0,55.466,0,55.013,0L55.013,0z" fill="#36B39B" fill-rule="evenodd"/><path clip-rule="evenodd" d="M396.186,170.513l-85.293,85.717l85.293,85.257l51.721-28.122   C466.959,302.929,496,283.884,496,256.23c0-28.122-29.041-47.167-48.094-57.603L396.186,170.513z" fill="#F3AB4B" fill-rule="evenodd"/><path clip-rule="evenodd" d="M366.708,357.345l-78.495-78.897L55.013,512   c0.454,0,1.36,0,2.274,0c19.959,0,37.2-7.265,64.873-22.231L366.708,357.345z" fill="#E1584B" fill-rule="evenodd"/></g></svg>